####
#
# OBJ File Generated by Meshlab
#
####
# Object mesh_attack_3(sim).obj
#
# Vertices: 220
# Faces: 248
#
####
vn 0.0001089 0.0002475 1.0000000
v 0.1801246 -0.0160826 0.0033137
vn 0.0028354 -0.0010255 0.9999955
v -1.1322120 0.0032165 0.0025686
vn -0.0024071 -0.0014641 0.9999961
v -0.7783958 1.4120497 0.0013529
vn 0.0032658 0.0354846 0.9993649
v -1.0485828 -1.6693708 0.0042157
vn 0.0015210 -0.0011661 0.9999982
v -0.0836293 -1.2769561 0.0042157
vn 0.0031115 0.0297650 0.9995521
v -0.6304362 0.4921266 0.0038628
vn 0.0010393 -0.0034770 0.9999934
v -0.7462307 -0.7108496 0.0033137
vn -0.0024765 -0.0029426 0.9999926
v -0.4631777 1.1547285 0.0013529
vn 0.0041800 -0.0036549 0.9999846
v -0.2444549 -1.4699469 0.0042157
vn 0.0173703 -0.0127710 0.9997676
v -0.9134893 -1.3091211 0.0042157
vn 0.0236329 -0.0006898 0.9997205
v -0.8362930 -1.0196350 0.0030392
vn 0.0000632 -0.0007055 0.9999998
v -0.1415265 0.1254440 0.0033137
vn 0.0034918 -0.0172484 0.9998451
v -1.4860283 -1.0196350 0.0022941
vn -0.0821024 0.0267191 0.9962657
v -1.0550158 -0.9874698 0.0030392
vn -0.0072395 0.0023260 0.9999712
v -0.9199223 -0.8974074 0.0030392
vn -0.0131918 0.0144083 0.9998091
v -1.0807478 0.3763321 0.0025686
vn -0.0500757 -0.0194100 0.9985568
v -1.1322120 -1.6951028 0.0050000
vn -0.3867821 -0.1353002 0.9121916
v -1.1836762 -1.6629378 -0.0050000
vn -0.2214806 -0.0916717 0.9708464
v -1.1643772 -1.6565046 0.0041373
vn 0.0003793 0.0063768 0.9999796
v -0.0643302 -1.6500716 0.0035882
vn 0.0038443 -0.0011832 0.9999920
v -0.2058567 -1.5986074 0.0033137
vn 0.0038720 -0.0009715 0.9999921
v -0.0514642 -1.5278441 0.0028039
vn -0.2771114 -0.0135481 0.9607424
v -1.2029753 -1.5149781 -0.0050000
vn 0.1000738 -0.0674336 0.9926923
v -0.9263553 -1.4377817 -0.0050000
vn -0.0256016 -0.0005852 0.9996721
v -1.1772432 -1.4249157 0.0032353
vn 0.1435426 -0.0405170 0.9888144
v -1.1708102 -1.3605855 0.0050000
vn -0.0000412 0.0002130 1.0000000
v -0.2766200 -1.2383579 0.0042157
vn 0.0369919 -0.0072370 0.9992894
v -1.1129130 -1.2061927 0.0029216
vn 0.0753860 -0.0191902 0.9969698
v -1.1322120 -1.1740276 0.0050000
vn 0.1007544 -0.0122460 0.9948360
v -0.8555921 -1.1032643 0.0041765
vn 0.3477424 -0.0675314 0.9351549
v -0.8362930 -1.1032643 -0.0030000
vn 0.0000245 0.0023852 0.9999972
v -0.0964953 -1.0903982 0.0041765
vn -0.0031864 0.0031686 0.9999899
v -0.3087851 -1.0775322 0.0041373
vn 0.0258218 -0.1267435 0.9915994
v -1.3638009 -1.0518000 -0.0050000
vn 0.0014962 0.0053754 0.9999844
v -1.6339878 -1.0003358 0.0024118
vn -0.2420219 0.0612786 0.9683338
v -1.0871809 -0.9874698 -0.0050000
vn 0.0070694 -0.0004408 0.9999749
v -1.1836762 -0.9746037 0.0001765
vn -0.0475624 0.0002905 0.9988683
v -0.3666823 -0.9617377 0.0021765
vn 0.0179248 -0.0138965 0.9997428
v -1.1386451 -0.9360055 -0.0005294
vn 0.0039453 0.0019980 0.9999902
v -0.8169939 -0.9231395 0.0026863
vn 0.0026857 -0.0129612 0.9999124
v -0.5275079 -0.9038404 0.0021373
vn -0.0473132 -0.0396390 0.9980933
v -0.3924144 -0.9038404 -0.0011176
vn -0.0304879 -0.0341277 0.9989524
v -1.0421497 -0.8523762 -0.0022941
vn -0.0091890 -0.0082454 0.9999238
v -0.3602493 -0.8523762 0.0024510
vn 0.0009001 -0.0048120 0.9999880
v -0.6111372 -0.8459432 0.0024118
vn 0.0002451 -0.0068825 0.9999763
v -0.7140656 -0.8395101 0.0021765
vn -0.0201565 -0.0320516 0.9992830
v -1.0035516 -0.8073450 0.0032353
vn 0.0013200 -0.0027283 0.9999955
v -0.5596730 -0.7880459 0.0025294
vn -0.0071260 0.0039809 0.9999667
v -1.6597199 -0.7816129 0.0012745
vn 0.0046863 -0.0123714 0.9999125
v -1.1579441 -0.7687469 0.0029608
vn -0.0021224 -0.0000189 0.9999977
v -0.1157944 -0.7301487 0.0024510
vn -0.0087379 0.0050862 0.9999489
v -1.3766669 -0.6014881 0.0032745
vn -0.0005025 -0.0000753 0.9999999
v -0.8362930 -0.5500239 0.0033137
vn 0.0047777 0.0080887 0.9999559
v -0.1479595 -0.5500239 0.0028824
vn -0.0662426 0.1394422 0.9880121
v -0.0385981 -0.5371578 0.0044510
vn -0.0468913 0.0995845 0.9939237
v -0.0450312 -0.5049927 -0.0026863
vn -0.0255568 0.0108710 0.9996143
v -1.4795953 -0.4792606 -0.0006863
vn -0.1069346 0.0763403 0.9913310
v 0.0514642 -0.4599615 0.0042549
vn -0.0405309 0.0187027 0.9990032
v 0.0771963 -0.4020643 0.0031569
vn -0.0093468 0.0035730 0.9999499
v -1.3702339 -0.3827652 0.0021765
vn -0.0445975 0.0527059 0.9976137
v 0.1157944 -0.3827652 0.0038628
vn 0.0233089 -0.0049574 0.9997160
v 0.0771963 -0.2927028 0.0030784
vn 0.0665717 0.0137994 0.9976862
v 0.1222274 -0.2734037 -0.0016274
vn -0.0033375 0.0048378 0.9999828
v -1.1000469 -0.1383101 0.0033137
vn -0.0095022 -0.0024364 0.9999519
v -1.2994707 -0.0353816 0.0007255
vn -0.0035796 0.0102038 0.9999415
v -0.9649534 0.0482477 -0.0009608
vn -0.0035142 -0.0003301 0.9999938
v 0.2122898 0.0868459 0.0031569
vn -0.0051040 0.0003507 0.9999869
v -1.3445019 0.1383101 0.0023726
vn -0.0047274 0.0016529 0.9999875
v 0.3602493 0.1447431 0.0050000
vn 0.0128089 -0.0004011 0.9999179
v 0.5468069 0.1511762 0.0029608
vn -0.0057978 0.0060926 0.9999647
v -1.1579441 0.2283725 0.0025294
vn 0.0199017 0.0072035 0.9997760
v 0.5210748 0.2605376 0.0040588
vn 0.0075559 -0.0080640 0.9999390
v 0.7204986 0.2605376 0.0017843
vn 0.0025980 -0.0087725 0.9999582
v 0.9649534 0.2927028 0.0014314
vn 0.0046696 0.0054954 0.9999741
v 0.5725390 0.3184349 0.0022549
vn -0.0110675 0.0026107 0.9999354
v 0.2573209 0.3248679 0.0042157
vn 0.0105802 0.0005166 0.9999439
v 0.7076325 0.3506000 0.0026078
vn 0.0031989 -0.0097134 0.9999477
v -0.7719628 0.3570330 0.0032745
vn 0.0075615 0.0118666 0.9999011
v 0.5210748 0.3570330 0.0022157
vn -0.0014539 0.0248362 0.9996905
v 0.2122898 0.3763321 0.0033137
vn 0.0057507 0.0147544 0.9998747
v 0.4181465 0.4149303 0.0023726
vn 0.0109283 0.0315072 0.9994438
v -0.3731153 0.4213633 0.0031177
vn 0.0382954 0.2381516 0.9704728
v 0.1029284 0.4277964 -0.0050000
vn 0.0034389 0.0390770 0.9992303
v -0.1929907 0.4470955 0.0019412
vn 0.3656492 0.6510110 -0.6651957
v -0.4245795 0.4599615 -0.0050000
vn 0.0292235 0.0333242 0.9990173
v -0.5017758 0.4728276 0.0033529
vn -0.0094282 0.0099563 0.9999061
v -1.1515111 0.5049927 -0.0015490
vn 0.0440488 -0.0481419 0.9978688
v -0.3924144 0.5242918 -0.0050000
vn 0.5171331 0.2139860 -0.8287239
v 0.7269316 0.5242918 -0.0050000
vn 0.0345253 -0.0049713 0.9993915
v -0.4503116 0.5371578 -0.0018235
vn 0.0428767 0.0176702 0.9989241
v 0.6304362 0.5371578 0.0026078
vn -0.0004572 0.0169157 0.9998568
v -0.6754674 0.5757560 -0.0007255
vn 0.0002519 -0.0057996 0.9999832
v -0.2766200 0.6465193 -0.0020196
vn -0.0331020 0.0153155 0.9993346
v -0.1350935 0.6658184 0.0023726
vn -0.0075444 -0.0097432 0.9999241
v -1.2608725 0.6851175 -0.0022549
vn -0.0006667 -0.0065817 0.9999781
v -0.8491590 0.7365817 0.0013529
vn 0.0036890 -0.0050932 0.9999802
v -0.4438786 0.8781083 0.0013137
vn 0.0045245 -0.0094463 0.9999452
v -0.1801246 0.8781083 -0.0023726
vn -0.0099800 -0.0041525 0.9999416
v -1.3509349 0.9038404 0.0004118
vn -0.0212345 0.0296751 0.9993340
v -1.4667293 0.9874698 -0.0016667
vn -0.0102584 -0.0162079 0.9998161
v -0.1801246 0.9939028 0.0019804
vn 0.0048099 -0.0027677 0.9999846
v -0.2959191 1.0260680 0.0013137
vn -0.0123254 0.0092732 0.9998811
v -1.2287074 1.0389340 0.0018628
vn -0.0190578 0.0086202 0.9997813
v -1.4474301 1.0646662 -0.0050000
vn -0.0019938 -0.0042680 0.9999889
v -1.1579441 1.1482955 0.0013529
vn 0.0692576 -0.0067683 0.9975759
v -0.2251558 1.2126257 -0.0023333
vn -0.0015658 -0.0252415 0.9996802
v -1.4474301 1.2190588 0.0026863
vn 0.0223847 -0.0042247 0.9997405
v -0.2766200 1.2640899 0.0030000
vn 0.0018308 -0.0069601 0.9999741
v -1.4216981 1.3155543 0.0030000
vn 0.0596126 0.0397701 0.9974291
v -0.3473832 1.4763799 -0.0012353
vn 0.0022541 0.0060816 0.9999790
v -0.5146418 1.5149781 0.0030000
vn 0.0087517 0.0050513 0.9999490
v -1.1643772 1.5214111 0.0050000
vn 0.0162028 0.0118672 0.9997983
v -0.4503116 1.5342772 0.0026078
vn 0.0057315 0.0295459 0.9995470
v -1.0035516 1.5857414 -0.0024902
vn 0.0358428 0.0833440 0.9958760
v -0.6047041 1.6179066 -0.0023726
vn -0.0295228 -0.0071595 0.9995385
v -0.8298600 1.6500716 0.0030392
vn -0.0284542 -0.0056721 0.9995790
v -0.9585204 1.7144020 -0.0020588
vn 0.0000000 0.0000000 -1.0000000
v -1.1386451 -1.7015359 -0.0050000
vn 0.0000000 0.0000000 -1.0000000
v -1.0292836 -1.7015359 -0.0050000
vn 0.0000000 0.0000000 -1.0000000
v -0.1608256 -1.6758038 -0.0050000
vn 0.0000000 0.0000000 -1.0000000
v -0.0450312 -1.4699469 -0.0050000
vn 0.0000000 0.0000000 -1.0000000
v -0.0450312 -1.5214111 -0.0050000
vn 0.0000000 0.0000000 -1.0000000
v -0.2637540 -1.5214111 -0.0050000
vn 0.0000000 0.0000000 -1.0000000
v -1.1772432 -1.3605855 -0.0050000
vn 0.0000000 0.0000000 -1.0000000
v -0.0578972 -1.3477193 -0.0050000
vn 0.0000000 0.0000000 -1.0000000
v -0.0514642 -1.3477193 -0.0050000
vn 0.0000000 0.0000000 -1.0000000
v -0.9006232 -1.3541523 -0.0050000
vn 0.0000000 0.0000000 -1.0000000
v -1.1515111 -1.2833891 -0.0050000
vn 0.0000000 0.0000000 -1.0000000
v -0.0643302 -1.2383579 -0.0050000
vn 0.0000000 0.0000000 -1.0000000
v -0.3087851 -1.2769561 -0.0050000
vn 0.0000000 0.0000000 -1.0000000
v -1.1322120 -1.1675946 -0.0050000
vn 0.0000000 0.0000000 -1.0000000
v -1.1000469 -1.0325010 -0.0050000
vn 0.0000000 0.0000000 -1.0000000
v -0.8298600 -1.1354294 -0.0050000
vn 0.0000000 0.0000000 -1.0000000
v -1.5760906 -1.0646662 -0.0050000
vn 0.0000000 0.0000000 -1.0000000
v -1.3316357 -1.0389340 -0.0050000
vn 0.0000000 0.0000000 -1.0000000
v -1.0807478 -0.9102734 -0.0050000
vn 0.0000000 0.0000000 -1.0000000
v -1.2094083 -0.9874698 -0.0050000
vn 0.0000000 0.0000000 -1.0000000
v -0.7462307 -0.9424386 -0.0050000
vn 0.0000000 0.0000000 -1.0000000
v -1.5439255 -0.5564569 -0.0050000
vn 0.0000000 0.0000000 -1.0000000
v -0.0064330 -0.5242918 -0.0050000
vn 0.0000000 0.0000000 -1.0000000
v 0.0000000 -0.5242918 -0.0050000
vn 0.0000000 0.0000000 -1.0000000
v 0.1029284 -0.4020643 -0.0050000
vn 0.0000000 0.0000000 -1.0000000
v -1.3445019 -0.2283725 -0.0050000
vn 0.0000000 0.0000000 -1.0000000
v -1.3123367 -0.1061450 -0.0050000
vn 0.0000000 0.0000000 -1.0000000
v -1.3123367 -0.1318771 -0.0050000
vn 0.0000000 0.0000000 -1.0000000
v 0.1608256 -0.2026404 -0.0050000
vn 0.0000000 0.0000000 -1.0000000
v -0.1157944 0.4406624 -0.0050000
vn 0.0000000 0.0000000 -1.0000000
v -1.3830999 0.0997119 -0.0050000
vn 0.0000000 0.0000000 -1.0000000
v 0.2444549 0.3698991 -0.0050000
vn 0.0000000 0.0000000 -1.0000000
v 0.5146418 0.1383101 -0.0050000
vn 0.0000000 0.0000000 -1.0000000
v 0.2959191 0.1511762 -0.0050000
vn 0.0000000 0.0000000 -1.0000000
v 0.3023521 0.4020643 -0.0050000
vn 0.0000000 0.0000000 -1.0000000
v 0.4052804 0.1511762 -0.0050000
vn 0.0000000 0.0000000 -1.0000000
v -1.3380687 0.3055688 -0.0050000
vn 0.0000000 0.0000000 -1.0000000
v 0.4567446 0.3891982 -0.0050000
vn 0.0000000 0.0000000 -1.0000000
v 0.4953428 0.2026404 -0.0050000
vn 0.0000000 0.0000000 -1.0000000
v 0.7269316 0.2155064 -0.0050000
vn 0.0000000 0.0000000 -1.0000000
v 0.9070562 0.2605376 -0.0050000
vn 0.0000000 0.0000000 -1.0000000
v 0.5210748 0.5114257 -0.0050000
vn 0.0000000 0.0000000 -1.0000000
v -1.1643772 0.6014881 -0.0050000
vn 0.0000000 0.0000000 -1.0000000
v -0.1608256 0.6207872 -0.0050000
vn 0.0000000 0.0000000 -1.0000000
v -0.0578972 0.7365817 -0.0050000
vn 0.0000000 0.0000000 -1.0000000
v -0.2476714 0.7623138 -0.0050000
vn 0.0000000 0.0000000 -1.0000000
v -0.2444549 0.6465193 -0.0050000
vn 0.0000000 0.0000000 -1.0000000
v -1.2673055 0.6529523 -0.0050000
vn 0.0000000 0.0000000 -1.0000000
v -1.3702339 0.7880459 -0.0050000
vn 0.0000000 0.0000000 -1.0000000
v -0.4953428 1.5535762 -0.0050000
vn 0.0000000 0.0000000 -1.0000000
v -1.3959659 1.0067688 -0.0050000
vn 0.0000000 0.0000000 -1.0000000
v -0.2251558 1.2576569 -0.0050000
vn 0.0000000 0.0000000 -1.0000000
v -1.0035516 1.5921744 -0.0050000
vn 0.0000000 0.0000000 -1.0000000
v -0.3280842 1.4699469 -0.0050000
vn 0.0000000 0.0000000 -1.0000000
v -1.1643772 1.5278441 -0.0050000
vn 0.0000000 0.0000000 -1.0000000
v -1.2608725 1.4763799 -0.0050000
vn 0.0000000 0.0000000 -1.0000000
v -0.6561683 1.6500716 -0.0050000
vn 0.0000000 0.0000000 -1.0000000
v -1.6597199 -0.9874698 -0.0050000
vn 0.0000000 0.0000000 -1.0000000
v -0.6111372 -0.8523762 -0.0050000
vn 0.0000098 0.0000382 -1.0000000
v 1.0035516 0.3634661 -0.0050000
vn 0.0000000 0.0000000 -1.0000000
v -1.4795953 1.1997597 -0.0050000
vn 0.0000000 0.0000000 -1.0000000
v -0.9971185 1.6822368 -0.0050000
vn 0.0000000 0.0000000 -1.0000000
v -1.2029753 -1.6372056 -0.0050000
vn 0.0000000 0.0000000 -1.0000000
v -0.9649534 -1.5342772 -0.0050000
vn 0.0000000 0.0000000 -1.0000000
v -1.1257790 0.5242918 -0.0050000
vn 0.0000000 0.0000000 -1.0000000
v -1.4345641 0.9102734 -0.0050000
vn 0.0000000 0.0000000 -1.0000000
v -1.4345641 0.9746037 -0.0050000
vn 0.0000000 0.0000000 -1.0000000
v -0.2637540 1.3670185 -0.0050000
vn 0.0000000 0.0000000 -1.0000000
v -0.5854051 1.6243396 -0.0050000
vn 0.0000000 0.0000000 -1.0000000
v -0.1029284 -0.8266441 -0.0050000
vn 0.0000000 0.0000000 -1.0000000
v -1.3702339 -0.3441670 -0.0050000
vn 0.0001183 0.0004613 -0.9999999
v 1.2544395 0.2991358 -0.0050000
vn 0.0001334 0.0005204 -0.9999999
v 2.1122868 0.3570330 -0.0048554
vn 0.0000000 0.0000000 -1.0000000
v -0.1736916 0.8845413 -0.0050000
vn 0.0000000 0.0000000 -1.0000000
v -0.1736916 1.0389340 -0.0050000
vn 0.0000000 0.0000000 -1.0000000
v -1.4474301 1.1289964 -0.0050000
vn 0.0000000 0.0000000 -1.0000000
v -0.3795483 1.5407102 -0.0050000
vn 0.0000000 0.0000000 -1.0000000
v -0.3473832 -1.0968312 -0.0050000
vn 0.0000000 0.0000000 -1.0000000
v -1.5825237 -0.6143542 -0.0050000
vn 0.0000000 0.0000000 -1.0000000
v -1.4667293 -0.4535285 -0.0050000
vn 0.0000000 0.0000000 -1.0000000
v 0.2637540 0.3698991 -0.0050000
vn 0.0000000 0.0000000 -1.0000000
v -1.5117604 0.7558808 -0.0050000
vn 0.0000000 0.0000000 -1.0000000
v -0.1801246 1.0839652 -0.0050000
vn 0.0000000 0.0000000 -1.0000000
v -0.1865577 1.1289964 -0.0050000
vn 0.0000000 0.0000000 -1.0000000
v -0.5468069 1.5986074 -0.0050000
vn 0.0000000 0.0000000 -1.0000000
v -0.2894860 -1.4249157 -0.0050000
vn 0.0000000 0.0000000 -1.0000000
v -1.3252027 -0.0225156 -0.0050000
vn 0.0000000 0.0000000 -1.0000000
v -0.3602493 0.5500239 -0.0050000
vn 0.0000000 0.0000000 -1.0000000
v -0.1929907 1.1611615 -0.0050000
vn 0.0000000 0.0000000 -1.0000000
v -0.2315888 1.2833891 -0.0050000
vn 0.0000000 0.0000000 -1.0000000
v -0.0257321 -0.5564569 -0.0050000
vn 0.0000000 0.0000000 -1.0000000
v -0.0257321 -0.5371578 -0.0050000
vn 0.0000000 0.0000000 -1.0000000
v -0.1994237 1.1804606 -0.0050000
vn 0.0000000 0.0000000 -1.0000000
v -0.2058567 1.2061927 -0.0050000
vn 0.0000000 0.0000000 -1.0000000
v -1.4281311 1.3734515 -0.0050000
vn 0.0000000 0.0000000 -1.0000000
v -1.3059037 -0.0932789 -0.0050000
vn 0.0000000 0.0000000 -1.0000000
v 0.2122898 -0.0611138 -0.0050000
vn 0.0000000 0.0000000 -1.0000000
v 0.2187228 0.4149303 -0.0050000
vn 0.0000000 0.0000000 -1.0000000
v -0.2122898 1.2190588 -0.0050000
vn 0.0000000 0.0000000 -1.0000000
v -0.8620251 -1.2576569 -0.0050000
vn 0.0000000 0.0000000 -1.0000000
v -0.7976949 -1.0389340 -0.0050000
vn 0.0000000 0.0000000 -1.0000000
v -0.0192991 -0.5371578 -0.0050000
vn 0.0000000 0.0000000 -1.0000000
v 0.7590967 0.4149303 -0.0050000
# 220 vertices, 0 vertices normals

f 21//21 20//20 22//22
f 21//21 22//22 9//9
f 27//27 5//5 32//32
f 10//10 30//30 19//19
f 28//28 19//19 30//30
f 27//27 32//32 33//33
f 11//11 40//40 15//15
f 52//52 53//53 60//60
f 53//53 12//12 82//82
f 65//65 2//2 68//68
f 67//67 76//76 80//80
f 12//12 67//67 80//80
f 12//12 80//80 82//82
f 96//96 97//97 105//105
f 99//99 96//96 103//103
f 96//96 105//105 103//103
f 105//105 8//8 3//3
f 11//11 15//15 14//14
f 44//44 48//48 41//41
f 47//47 7//7 50//50
f 72//72 81//81 76//76
f 108//108 110//110 113//113
f 13//13 50//50 52//52
f 44//44 51//51 54//54
f 99//99 95//95 96//96
f 109//109 105//105 112//112
f 9//9 22//22 5//5
f 38//38 33//33 44//44
f 13//13 52//52 49//49
f 53//53 64//64 60//60
f 111//111 115//115 116//116
f 39//39 50//50 13//13
f 32//32 51//51 33//33
f 49//49 52//52 57//57
f 64//64 2//2 65//65
f 70//70 77//77 75//75
f 3//3 8//8 111//111
f 8//8 108//108 111//111
f 24//24 10//10 19//19
f 7//7 48//48 12//12
f 50//50 53//53 52//52
f 7//7 53//53 50//50
f 62//62 1//1 12//12
f 66//66 82//82 86//86
f 87//87 92//92 96//96
f 93//93 94//94 98//98
f 107//107 105//105 109//109
f 108//108 113//113 111//111
f 112//112 3//3 114//114
f 9//9 5//5 27//27
f 82//82 66//66 64//64
f 2//2 78//78 71//71
f 78//78 6//6 16//16
f 97//97 8//8 105//105
f 99//99 103//103 100//100
f 4//4 24//24 19//19
f 11//11 14//14 28//28
f 44//44 33//33 51//51
f 60//60 64//64 65//65
f 1//1 67//67 12//12
f 69//69 72//72 76//76
f 16//16 6//6 92//92
f 92//92 97//97 96//96
f 18//18 17//17 19//19
f 17//17 4//4 19//19
f 18//18 19//19 23//23
f 23//23 19//19 25//25
f 25//25 19//19 28//28
f 26//26 25//25 28//28
f 29//29 26//26 28//28
f 28//28 30//30 11//11
f 29//29 28//28 14//14
f 30//30 31//31 11//11
f 34//34 37//37 13//13
f 35//35 13//13 49//49
f 13//13 37//37 39//39
f 43//43 36//36 14//14
f 41//41 42//42 44//44
f 42//42 38//38 44//44
f 41//41 48//48 45//45
f 39//39 43//43 50//50
f 14//14 15//15 43//43
f 15//15 40//40 47//47
f 40//40 46//46 47//47
f 15//15 47//47 43//43
f 50//50 43//43 47//47
f 7//7 47//47 46//46
f 45//45 48//48 7//7
f 45//45 7//7 46//46
f 48//48 44//44 54//54
f 12//12 48//48 54//54
f 51//51 55//55 54//54
f 54//54 55//55 56//56
f 57//57 52//52 60//60
f 55//55 58//58 56//56
f 54//54 56//56 12//12
f 56//56 58//58 59//59
f 7//7 12//12 53//53
f 56//56 59//59 62//62
f 56//56 62//62 12//12
f 63//63 59//59 61//61
f 59//59 63//63 62//62
f 53//53 82//82 64//64
f 2//2 64//64 66//66
f 2//2 66//66 78//78
f 78//78 66//66 86//86
f 67//67 69//69 76//76
f 68//68 2//2 71//71
f 70//70 73//73 77//77
f 70//70 75//75 72//72
f 72//72 75//75 79//79
f 71//71 78//78 16//16
f 81//81 72//72 79//79
f 73//73 74//74 77//77
f 68//68 71//71 87//87
f 86//86 82//82 85//85
f 80//80 84//84 82//82
f 80//80 83//83 84//84
f 71//71 16//16 87//87
f 79//79 75//75 91//91
f 78//78 86//86 6//6
f 75//75 77//77 91//91
f 86//86 90//90 6//6
f 86//86 85//85 90//90
f 91//91 77//77 89//89
f 87//87 16//16 92//92
f 85//85 88//88 90//90
f 6//6 90//90 92//92
f 88//88 93//93 90//90
f 95//95 87//87 96//96
f 92//92 90//90 97//97
f 90//90 93//93 97//97
f 97//97 93//93 102//102
f 102//102 93//93 98//98
f 98//98 101//101 102//102
f 100//100 103//103 104//104
f 97//97 102//102 8//8
f 102//102 101//101 106//106
f 104//104 103//103 105//105
f 104//104 105//105 107//107
f 106//106 108//108 102//102
f 8//8 102//102 108//108
f 105//105 3//3 112//112
f 3//3 117//117 114//114
f 3//3 111//111 116//116
f 117//117 3//3 116//116
f 133//133 119//119 118//118
f 121//121 120//120 123//123
f 120//120 121//121 122//122
f 125//125 121//121 123//123
f 203//203 125//125 123//123
f 130//130 125//125 203//203
f 195//195 125//125 130//130
f 125//125 126//126 121//121
f 128//128 133//133 124//124
f 195//195 129//129 125//125
f 131//131 133//133 128//128
f 132//132 133//133 131//131
f 188//188 135//135 134//134
f 136//136 133//133 132//132
f 133//133 136//136 218//218
f 176//176 187//187 195//195
f 176//176 138//138 136//136
f 145//145 176//176 136//136
f 145//145 187//187 176//176
f 196//196 188//188 175//175
f 139//139 188//188 196//196
f 145//145 209//209 208//208
f 145//145 140//140 209//209
f 145//145 141//141 140//140
f 145//145 142//142 141//141
f 145//145 146//146 142//142
f 143//143 145//145 136//136
f 145//145 214//214 146//146
f 85//85 147//147 145//145
f 213//213 85//85 145//145
f 204//204 85//85 213//213
f 149//149 198//198 145//145
f 145//145 198//198 151//151
f 155//155 153//153 151//151
f 198//198 155//155 151//151
f 152//152 155//155 198//198
f 154//154 85//85 148//148
f 154//154 182//182 85//85
f 155//155 156//156 153//153
f 156//156 89//89 220//220
f 156//156 158//158 157//157
f 156//156 220//220 158//158
f 220//220 177//177 158//158
f 159//159 89//89 156//156
f 85//85 163//163 205//205
f 205//205 163//163 164//164
f 163//163 162//162 161//161
f 163//163 161//161 164//164
f 166//166 85//85 165//165
f 183//183 85//85 166//166
f 168//168 85//85 183//183
f 163//163 201//201 200//200
f 193//193 168//168 184//184
f 212//212 168//168 193//193
f 173//173 168//168 212//212
f 207//207 169//169 163//163
f 163//163 206//206 201//201
f 163//163 210//210 206//206
f 163//163 211//211 210//210
f 163//163 216//216 211//211
f 163//163 169//169 216//216
f 172//172 170//170 168//168
f 172//172 168//168 173//173
f 170//170 174//174 168//168
f 177//177 189//189 158//158
f 178//178 212//212 193//193
f 124//124 133//133 180//180
f 133//133 181//181 119//119
f 133//133 127//127 181//181
f 197//197 188//188 139//139
f 145//145 151//151 214//214
f 85//85 204//204 148//148
f 177//177 190//190 189//189
f 163//163 191//191 162//162
f 184//184 168//168 183//183
f 85//85 207//207 163//163
f 85//85 185//185 207//207
f 174//174 186//186 168//168
f 188//188 136//136 137//137
f 145//145 208//208 187//187
f 143//143 136//136 188//188
f 163//163 192//192 191//191
f 175//175 188//188 134//134
f 156//156 157//157 150//150
f 147//147 215//215 145//145
f 199//199 183//183 166//166
f 200//200 192//192 163//163
f 85//85 171//171 185//185
f 186//186 202//202 168//168
f 168//168 167//167 85//85
f 168//168 202//202 167//167
f 188//188 137//137 135//135
f 145//145 215//215 149//149
f 165//165 85//85 160//160
f 85//85 194//194 171//171
f 179//179 174//174 170//170
f 180//180 133//133 118//118
f 133//133 217//217 127//127
f 167//167 194//194 85//85
f 209//209 140//140 219//219
f 213//213 145//145 144//144
f 160//160 85//85 182//182
# 248 faces, 0 coords texture

# End of File
